<?xml version="1.0" encoding="utf-8"?>
<!-- Generator: Adobe Illustrator 17.1.0, SVG Export Plug-In . SVG Version: 6.00 Build 0)  -->
<!DOCTYPE svg PUBLIC "-//W3C//DTD SVG 1.1//EN" "http://www.w3.org/Graphics/SVG/1.1/DTD/svg11.dtd">
<svg version="1.1" id="Layer_1" xmlns="http://www.w3.org/2000/svg" xmlns:xlink="http://www.w3.org/1999/xlink" x="0px" y="0px"
	 viewBox="98.4 124.5 333.1 332.9" enable-background="new 98.4 124.5 333.1 332.9" xml:space="preserve">
<g>
	<g>
		<path d="M431.4,426.5c0,10.3,0,20.6,0,30.9c-111,0-222,0-333,0c0-8.7,0-17.4,0-26.2c37.2-16.5,75.6-31.2,103.2-65.5
			c-19.8-2.5-28.4-14.6-24.5-32.1c0.4-1.9,1.8-4,1.4-5.7c-0.9-4.4-1.2-10.7-4.1-12.5c-9-5.5-7.1-13.8-7.9-21.7
			c-0.4-4.4-1.2-8.7-1.8-13.1c-2.7-18.5-22.1-33.4-11.2-54.8c1.6-3.1,1.1-7.3,1.6-11c-0.6-0.2-1.2-0.3-1.8-0.5
			c-1.4,3.3-2.8,6.7-4.4,10.6c-0.1-2.2-0.6-3.8-0.2-5.3c8.1-28.9,25.9-49.7,52.6-63.2c6.9-3.5,13.8-7.4,19.8-12.2
			c7.6-6.2,15-9.8,24.9-5.9c2.9,1.2,7.8,1.7,9.9,0.1c10.8-8.1,22.3-10.8,34.5-4.8c12.6,6.2,25.2,13,36.7,21.1s20.8,19.6,32.5,27.2
			c18.6,12.1,25.3,23.3,22.9,44.8c-0.2,2.1,0,5.6,1.3,6.4c10.8,6.8,8.6,19.5,13.6,29c1.2,2.3-0.4,8.8-2.1,9.3
			c-8.5,2.8-9.9,9.8-13.1,16.6c-2.7,5.8-8,10.3-12.4,15.2c-3.7,4.1-9.6,7.2-11.2,11.9c-2.5,7.3-1.8,15.6-3.3,23.3
			c-0.8,3.9-2.5,9.1-5.4,10.7c-8.2,4.4-17.3,7.2-28.7,11.7c7.9,8.5,14.1,19.8,23.7,24.9C373.1,400.5,402.5,413,431.4,426.5z
			 M264.2,244.4c13.3-8.6,26-1.9,38.6-0.5c3.9,0.4,10.4,1.2,11.2-0.4c1.8-3.7,2.6-9.7,0.7-13.1c-7.1-13.1-14.8-26-23.4-38.2
			c-8.8-12.6-23.3-9-35.9-10.8c-26.2-3.5-34.6,4.2-31.3,30.2c1.2,8.9,2.7,17.2-9.6,21.4c6.3,1.8,11.6,2.1,16.9,1.8
			c10.7-0.7,23.7,7.5,22.7,15.4c-1.7,14.1-4.3,28-6.1,42.1c-0.4,3.1-0.1,7.7,1.8,9.2c2.2,1.8,6.7,1.7,9.8,0.9
			c4.7-1.2,9.1-3.8,10.9-4.6c6.1,4.1,9.9,6.8,13.7,9.4c0.9-1.2,1.9-2.5,2.8-3.7c-4-4.3-7.9-8.6-11.9-12.9c0.7-0.8,1.4-1.6,2.1-2.4
			c10.8,8.6,21.6,17.2,32.8,26.2c7.9-16.2,19.1-31.3,8.4-50.4C284,280.2,271,275.6,264.2,244.4z M314,375.9
			c-5.5,7.6-8.9,13.3-13.2,18.1c-6.2,6.9-13.1,13.2-19.6,19.7c-8.8,8.9-17.2,3-26.1-0.2c-3.4-1.2-9.9-0.7-11.5,1.6
			c-1.9,2.6-1.6,10,0.6,11.8c9.8,8.2,20.3,15.5,31.2,22.2c2.6,1.6,8.4,1,11.1-1c20-14.3,31.2-33.8,31.9-58.7
			C318.5,385.8,316,382,314,375.9z M240.1,265.1c-10.8,6.5-23.4,0.3-29.8,13.5c-4.7,9.6-0.6,15.5,6.3,20.9
			C231.5,294.8,236.8,283.5,240.1,265.1z M258.3,340.4c7.6,3.2,14.9,9.3,20.5,8c10.3-2.4,8.3-13,8.4-20.6
			C278.6,331.6,270.2,335.2,258.3,340.4z M243.5,327.5c10.9,10,20,5.2,28.9-2.5C263.1,325.8,253.7,326.6,243.5,327.5z"/>
		<path fill="#FFFFFF" d="M431.4,426.5c-28.9-13.4-58.3-25.9-86.4-40.9c-9.6-5.1-15.8-16.3-23.7-24.9c11.4-4.5,20.5-7.3,28.7-11.7
			c2.9-1.6,4.7-6.8,5.4-10.7c1.5-7.7,0.8-16,3.3-23.3c1.6-4.7,7.5-7.8,11.2-11.9c4.4-4.9,9.7-9.4,12.4-15.2
			c3.2-6.8,4.6-13.8,13.1-16.6c1.6-0.5,3.3-7.1,2.1-9.3c-4.9-9.4-2.8-22.2-13.6-29c-1.3-0.8-1.5-4.3-1.3-6.4
			c2.4-21.5-4.3-32.7-22.9-44.8c-11.8-7.6-21-19.1-32.5-27.2c-11.5-8.1-24.1-14.8-36.7-21.1c-12.1-6-23.7-3.3-34.5,4.8
			c-2.2,1.6-7,1.1-9.9-0.1c-9.9-4-17.3-0.3-24.9,5.9c-6,4.9-12.9,8.8-19.8,12.2c-26.8,13.5-44.5,34.3-52.6,63.2
			c-0.4,1.4,0.1,3.1,0.2,5.3c1.6-3.9,3-7.3,4.4-10.6c0.6,0.2,1.2,0.3,1.8,0.5c-0.5,3.7,0,7.9-1.6,11c-10.9,21.4,8.5,36.4,11.2,54.8
			c0.6,4.4,1.4,8.7,1.8,13.1c0.8,7.8-1.1,16.1,7.9,21.7c2.9,1.8,3.2,8.1,4.1,12.5c0.4,1.7-1,3.8-1.4,5.7
			c-3.8,17.5,4.7,29.6,24.5,32.1c-27.6,34.2-66,48.9-103.2,65.5c0-102.1,0-204.3,0-306.6c110.7,0,221.5,0,333,0
			C431.4,225.1,431.4,325.8,431.4,426.5z"/>
		<path fill="#FFFFFF" d="M264.2,244.4c6.7,31.2,19.8,35.8,54.5,19.7c10.7,19.1-0.5,34.2-8.4,50.4c-11.3-9-22.1-17.6-32.8-26.2
			c-0.7,0.8-1.4,1.6-2.1,2.4c4,4.3,7.9,8.6,11.9,12.9c-0.9,1.2-1.9,2.5-2.8,3.7c-3.8-2.6-7.6-5.2-13.7-9.4
			c-1.8,0.8-6.2,3.4-10.9,4.6c-3.1,0.8-7.6,0.8-9.8-0.9c-1.9-1.5-2.2-6.1-1.8-9.2c1.8-14.1,4.5-28,6.1-42.1
			c0.9-7.9-12-16.1-22.7-15.4c-5.3,0.3-10.7,0.1-16.9-1.8c12.3-4.2,10.8-12.5,9.6-21.4c-3.4-26,5-33.8,31.3-30.2
			c12.6,1.7,27.1-1.8,35.9,10.8c8.6,12.2,16.3,25.1,23.4,38.2c1.9,3.4,1.1,9.4-0.7,13.1c-0.8,1.6-7.4,0.8-11.2,0.4
			C290.2,242.6,277.6,235.9,264.2,244.4z"/>
		<path fill="#FFFFFF" d="M314,375.9c2.1,6.1,4.5,9.9,4.4,13.6c-0.7,24.9-11.9,44.4-31.9,58.7c-2.7,1.9-8.5,2.6-11.1,1
			c-10.9-6.7-21.4-14-31.2-22.2c-2.2-1.8-2.5-9.2-0.6-11.8c1.6-2.2,8.1-2.8,11.5-1.6c8.9,3.2,17.2,9.1,26.1,0.2
			c6.5-6.6,13.4-12.8,19.6-19.7C305.1,389.2,308.5,383.5,314,375.9z"/>
		<path fill="#FFFFFF" d="M240.1,265.1c-3.3,18.4-8.6,29.7-23.6,34.3c-6.8-5.4-11-11.3-6.3-20.9
			C216.7,265.4,229.2,271.6,240.1,265.1z"/>
		<path fill="#FFFFFF" d="M258.3,340.4c11.9-5.2,20.3-8.8,29-12.6c-0.2,7.6,1.8,18.2-8.4,20.6C273.2,349.7,265.9,343.6,258.3,340.4z
			"/>
		<path fill="#FFFFFF" d="M243.5,327.5c10.2-0.9,19.5-1.7,28.9-2.5C263.5,332.6,254.4,337.5,243.5,327.5z"/>
	</g>
</g>
</svg>
